<svg width="155" height="155" viewBox="0 0 155 155" fill="none" xmlns="http://www.w3.org/2000/svg">
<path d="M34.875 120.125L93 93L120.125 34.875L62 62L34.875 120.125ZM77.5 85.25C75.3042 85.25 73.4648 84.506 71.982 83.018C70.4992 81.53 69.7552 79.6907 69.75 77.5C69.75 75.3042 70.494 73.4648 71.982 71.982C73.47 70.4992 75.3093 69.7552 77.5 69.75C79.6958 69.75 81.5377 70.494 83.0257 71.982C84.5137 73.47 85.2552 75.3093 85.25 77.5C85.25 79.6958 84.506 81.5377 83.018 83.0257C81.53 84.5137 79.6907 85.2552 77.5 85.25ZM77.5 155C66.7792 155 56.7042 152.964 47.275 148.893C37.8458 144.822 29.6437 139.301 22.6687 132.331C15.6937 125.356 10.1732 117.154 6.107 107.725C2.04083 98.2958 0.00516667 88.2208 0 77.5C0 66.7792 2.03567 56.7042 6.107 47.275C10.1783 37.8458 15.6989 29.6437 22.6687 22.6687C29.6437 15.6937 37.8458 10.1732 47.275 6.107C56.7042 2.04083 66.7792 0.00516667 77.5 0C88.2208 0 98.2958 2.03567 107.725 6.107C117.154 10.1783 125.356 15.6989 132.331 22.6687C139.306 29.6437 144.829 37.8458 148.901 47.275C152.972 56.7042 155.005 66.7792 155 77.5C155 88.2208 152.964 98.2958 148.893 107.725C144.822 117.154 139.301 125.356 132.331 132.331C125.356 139.306 117.154 144.829 107.725 148.901C98.2958 152.972 88.2208 155.005 77.5 155ZM77.5 139.5C94.8083 139.5 109.469 133.494 121.481 121.481C133.494 109.469 139.5 94.8083 139.5 77.5C139.5 60.1917 133.494 45.5312 121.481 33.5187C109.469 21.5062 94.8083 15.5 77.5 15.5C60.1917 15.5 45.5312 21.5062 33.5187 33.5187C21.5062 45.5312 15.5 60.1917 15.5 77.5C15.5 94.8083 21.5062 109.469 33.5187 121.481C45.5312 133.494 60.1917 139.5 77.5 139.5Z" fill="black"/>
</svg>
