<svg width="36" height="34" viewBox="0 0 36 34" fill="none" xmlns="http://www.w3.org/2000/svg">
<path d="M25.7586 0C22.6412 0 19.8745 1.31757 18 3.58219C16.1255 1.31757 13.3588 0 10.2414 0C7.5262 0.00351755 4.92318 1.15998 3.00326 3.21572C1.08334 5.27146 0.00328515 8.05864 0 10.9659C0 22.9852 16.4188 32.5886 17.1171 32.9924C17.3884 33.1489 17.6918 33.2308 18 33.2308C18.3082 33.2308 18.6116 33.1489 18.8829 32.9924C19.5812 32.5886 36 22.9852 36 10.9659C35.9967 8.05864 34.9167 5.27146 32.9967 3.21572C31.0768 1.15998 28.4738 0.00351755 25.7586 0ZM24.9067 23.6531C22.7456 25.6167 20.4354 27.384 18 28.9367C15.5646 27.384 13.2544 25.6167 11.0933 23.6531C7.73069 20.5644 3.72414 15.854 3.72414 10.9659C3.72414 9.11513 4.41077 7.34018 5.63299 6.03149C6.85521 4.72281 8.5129 3.9876 10.2414 3.9876C13.0034 3.9876 15.3155 5.54941 16.276 8.06492C16.4158 8.43162 16.6545 8.74543 16.9615 8.96633C17.2686 9.18722 17.6301 9.30519 18 9.30519C18.3699 9.30519 18.7314 9.18722 19.0385 8.96633C19.3455 8.74543 19.5842 8.43162 19.724 8.06492C20.6845 5.54941 22.9966 3.9876 25.7586 3.9876C27.4871 3.9876 29.1448 4.72281 30.367 6.03149C31.5892 7.34018 32.2759 9.11513 32.2759 10.9659C32.2759 15.854 28.2693 20.5644 24.9067 23.6531Z" fill="white"/>
<path d="M24.4655 3C21.8677 3 19.5621 4.07052 18 5.91053C16.4379 4.07052 14.1323 3 11.5345 3C9.27184 3.00286 7.10265 3.94248 5.50272 5.61277C3.90278 7.28306 3.00274 9.54764 3 11.9098C3 21.6755 16.6823 29.4783 17.2642 29.8063C17.4903 29.9334 17.7432 30 18 30C18.2568 30 18.5096 29.9334 18.7358 29.8063C19.3177 29.4783 33 21.6755 33 11.9098C32.9973 9.54764 32.0972 7.28306 30.4973 5.61277C28.8973 3.94248 26.7282 3.00286 24.4655 3ZM23.7556 22.2181C21.9547 23.8136 20.0295 25.2495 18 26.511C15.9705 25.2495 14.0453 23.8136 12.2444 22.2181C9.44224 19.7085 6.10345 15.8814 6.10345 11.9098C6.10345 10.406 6.67564 8.96389 7.69416 7.90059C8.71268 6.83728 10.0941 6.23992 11.5345 6.23992C13.8362 6.23992 15.7629 7.50889 16.5634 9.55274C16.6799 9.85069 16.8787 10.1057 17.1346 10.2851C17.3905 10.4646 17.6917 10.5605 18 10.5605C18.3083 10.5605 18.6095 10.4646 18.8654 10.2851C19.1213 10.1057 19.3201 9.85069 19.4366 9.55274C20.2371 7.50889 22.1638 6.23992 24.4655 6.23992C25.9059 6.23992 27.2873 6.83728 28.3058 7.90059C29.3244 8.96389 29.8966 10.406 29.8966 11.9098C29.8966 15.8814 26.5578 19.7085 23.7556 22.2181Z" fill="white"/>
<path d="M23.6034 6C21.352 6 19.3538 6.83263 18 8.26375C16.6462 6.83263 14.648 6 12.3966 6C10.4356 6.00222 8.55563 6.73304 7.16902 8.03216C5.78241 9.33127 5.00237 11.0926 5 12.9298C5 20.5254 16.858 26.5942 17.3623 26.8494C17.5583 26.9482 17.7774 27 18 27C18.2226 27 18.4417 26.9482 18.6377 26.8494C19.142 26.5942 31 20.5254 31 12.9298C30.9976 11.0926 30.2176 9.33127 28.831 8.03216C27.4444 6.73304 25.5644 6.00222 23.6034 6ZM22.9882 20.9474C21.4274 22.1883 19.7589 23.3052 18 24.2864C16.2411 23.3052 14.5726 22.1883 13.0118 20.9474C10.5833 18.9955 7.68966 16.0189 7.68966 12.9298C7.68966 11.7603 8.18556 10.6386 9.06827 9.81157C9.95099 8.98455 11.1482 8.51994 12.3966 8.51994C14.3914 8.51994 16.0612 9.50692 16.7549 11.0966C16.8559 11.3283 17.0282 11.5266 17.25 11.6662C17.4717 11.8058 17.7328 11.8804 18 11.8804C18.2672 11.8804 18.5283 11.8058 18.75 11.6662C18.9718 11.5266 19.1441 11.3283 19.2451 11.0966C19.9388 9.50692 21.6086 8.51994 23.6034 8.51994C24.8518 8.51994 26.049 8.98455 26.9317 9.81157C27.8144 10.6386 28.3103 11.7603 28.3103 12.9298C28.3103 16.0189 25.4167 18.9955 22.9882 20.9474Z" fill="white"/>
<path d="M22.7414 8C20.8363 8 19.1455 8.67403 18 9.83256C16.8545 8.67403 15.1637 8 13.2586 8C11.5993 8.0018 10.0086 8.59342 8.83533 9.64508C7.66204 10.6967 7.00201 12.1226 7 13.6099C7 19.7586 17.0337 24.6715 17.4604 24.878C17.6263 24.9581 17.8117 25 18 25C18.1883 25 18.3737 24.9581 18.5396 24.878C18.9663 24.6715 29 19.7586 29 13.6099C28.998 12.1226 28.338 10.6967 27.1647 9.64508C25.9914 8.59342 24.4007 8.0018 22.7414 8ZM22.2208 20.1003C20.9001 21.1048 19.4883 22.009 18 22.8032C16.5117 22.009 15.0999 21.1048 13.7792 20.1003C11.7243 18.5202 9.27586 16.1105 9.27586 13.6099C9.27586 12.6631 9.69547 11.755 10.4424 11.0856C11.1893 10.4161 12.2023 10.04 13.2586 10.04C14.9466 10.04 16.3595 10.8389 16.9465 12.1258C17.0319 12.3134 17.1777 12.4739 17.3654 12.5869C17.553 12.6999 17.7739 12.7603 18 12.7603C18.2261 12.7603 18.447 12.6999 18.6346 12.5869C18.8223 12.4739 18.9681 12.3134 19.0535 12.1258C19.6405 10.8389 21.0534 10.04 22.7414 10.04C23.7977 10.04 24.8107 10.4161 25.5576 11.0856C26.3045 11.755 26.7241 12.6631 26.7241 13.6099C26.7241 16.1105 24.2757 18.5202 22.2208 20.1003Z" fill="white"/>
<path d="M21.8793 9C20.3206 9 18.9372 9.55509 18 10.5092C17.0628 9.55509 15.6794 9 14.1207 9C12.7631 9.00148 11.4616 9.4887 10.5016 10.3548C9.54167 11.2208 9.00164 12.3951 9 13.6199C9 18.6836 17.2094 22.7295 17.5585 22.8996C17.6942 22.9655 17.8459 23 18 23C18.1541 23 18.3058 22.9655 18.4415 22.8996C18.7906 22.7295 27 18.6836 27 13.6199C26.9984 12.3951 26.4583 11.2208 25.4984 10.3548C24.5384 9.4887 23.2369 9.00148 21.8793 9ZM21.4534 18.965C20.3728 19.7922 19.2177 20.5368 18 21.1909C16.7823 20.5368 15.6272 19.7922 14.5466 18.965C12.8653 17.6637 10.8621 15.6792 10.8621 13.6199C10.8621 12.8402 11.2054 12.0924 11.8165 11.541C12.4276 10.9897 13.2564 10.68 14.1207 10.68C15.5017 10.68 16.6578 11.3379 17.138 12.3977C17.2079 12.5522 17.3272 12.6844 17.4808 12.7775C17.6343 12.8705 17.815 12.9202 18 12.9202C18.185 12.9202 18.3657 12.8705 18.5192 12.7775C18.6728 12.6844 18.7921 12.5522 18.862 12.3977C19.3422 11.3379 20.4983 10.68 21.8793 10.68C22.7436 10.68 23.5724 10.9897 24.1835 11.541C24.7946 12.0924 25.1379 12.8402 25.1379 13.6199C25.1379 15.6792 23.1347 17.6637 21.4534 18.965Z" fill="white"/>
<path d="M8 9H27V22H8V9Z" fill="white"/>
</svg>
