<svg width="36" height="34" viewBox="0 0 36 34" fill="none" xmlns="http://www.w3.org/2000/svg">
<path d="M25.7586 0C22.6412 0 19.8745 1.31754 18 3.58211C16.1255 1.31754 13.3588 0 10.2414 0C7.5262 0.00351747 4.92318 1.15995 3.00326 3.21565C1.08334 5.27134 0.00328515 8.05845 0 10.9656C0 22.9846 16.4188 32.5879 17.1171 32.9916C17.3884 33.1481 17.6918 33.23 18 33.23C18.3082 33.23 18.6116 33.1481 18.8829 32.9916C19.5812 32.5879 36 22.9846 36 10.9656C35.9967 8.05845 34.9167 5.27134 32.9967 3.21565C31.0768 1.15995 28.4738 0.00351747 25.7586 0ZM24.9067 23.6525C22.7456 25.6161 20.4354 27.3834 18 28.936C15.5646 27.3834 13.2544 25.6161 11.0933 23.6525C7.73069 20.5639 3.72414 15.8537 3.72414 10.9656C3.72414 9.11492 4.41077 7.34001 5.63299 6.03135C6.85521 4.7227 8.5129 3.9875 10.2414 3.9875C13.0034 3.9875 15.3155 5.54928 16.276 8.06473C16.4158 8.43143 16.6545 8.74523 16.9615 8.96612C17.2686 9.18701 17.6301 9.30498 18 9.30498C18.3699 9.30498 18.7314 9.18701 19.0385 8.96612C19.3455 8.74523 19.5842 8.43143 19.724 8.06473C20.6845 5.54928 22.9966 3.9875 25.7586 3.9875C27.4871 3.9875 29.1448 4.7227 30.367 6.03135C31.5892 7.34001 32.2759 9.11492 32.2759 10.9656C32.2759 15.8537 28.2693 20.5639 24.9067 23.6525Z" fill="white"/>
</svg>
